<mxfile host="65bd71144e">
    <diagram id="NpaAvSSZ4-7o3F0UH3I9" name="PÃ¡gina-1">
        <mxGraphModel dx="650" dy="516" grid="1" gridSize="10" guides="1" tooltips="1" connect="1" arrows="1" fold="1" page="1" pageScale="1" pageWidth="827" pageHeight="1169" math="0" shadow="0">
            <root>
                <mxCell id="0"/>
                <mxCell id="1" parent="0"/>
                <mxCell id="4" value="" style="edgeStyle=none;html=1;strokeColor=#000000;fontColor=#000000;sketch=0;shadow=0;endArrow=classic;endFill=1;" parent="1" source="2" target="3" edge="1">
                    <mxGeometry relative="1" as="geometry"/>
                </mxCell>
                <mxCell id="2" value="INICIO" style="ellipse;whiteSpace=wrap;html=1;fillColor=#FF9999;strokeColor=#000000;fontColor=#000000;shadow=0;sketch=0;" parent="1" vertex="1">
                    <mxGeometry x="200" y="80" width="80" height="40" as="geometry"/>
                </mxCell>
                <mxCell id="6" value="" style="edgeStyle=none;html=1;strokeColor=#000000;fontColor=#000000;sketch=0;shadow=0;endArrow=classic;endFill=1;" parent="1" source="3" target="5" edge="1">
                    <mxGeometry relative="1" as="geometry"/>
                </mxCell>
                <mxCell id="3" value="a, b" style="shape=parallelogram;perimeter=parallelogramPerimeter;whiteSpace=wrap;html=1;fixedSize=1;fillColor=#FFFF99;strokeColor=#000000;fontColor=#000000;rounded=0;sketch=0;shadow=0;" parent="1" vertex="1">
                    <mxGeometry x="200" y="160" width="80" height="40" as="geometry"/>
                </mxCell>
                <mxCell id="8" value="" style="edgeStyle=orthogonalEdgeStyle;html=1;entryX=0.5;entryY=0;entryDx=0;entryDy=0;strokeColor=#000000;fontColor=#000000;sketch=0;shadow=0;endArrow=classic;endFill=1;" parent="1" source="5" target="7" edge="1">
                    <mxGeometry relative="1" as="geometry"/>
                </mxCell>
                <mxCell id="16" style="edgeStyle=orthogonalEdgeStyle;sketch=0;html=1;exitX=0;exitY=0.5;exitDx=0;exitDy=0;entryX=0.5;entryY=0;entryDx=0;entryDy=0;shadow=0;fontColor=#000000;endArrow=classic;endFill=1;strokeColor=#000000;" parent="1" source="5" target="9" edge="1">
                    <mxGeometry relative="1" as="geometry"/>
                </mxCell>
                <mxCell id="5" value="a &amp;gt; b" style="rhombus;whiteSpace=wrap;html=1;fillColor=#CC99FF;strokeColor=#000000;fontColor=#000000;shadow=0;sketch=0;" parent="1" vertex="1">
                    <mxGeometry x="200" y="240" width="80" height="80" as="geometry"/>
                </mxCell>
                <mxCell id="30" style="edgeStyle=orthogonalEdgeStyle;sketch=0;html=1;exitX=0.5;exitY=1;exitDx=0;exitDy=0;entryX=0.5;entryY=1;entryDx=0;entryDy=0;shadow=0;fontColor=#000000;endArrow=none;endFill=0;strokeColor=#000000;" parent="1" source="7" target="9" edge="1">
                    <mxGeometry relative="1" as="geometry">
                        <Array as="points">
                            <mxPoint x="360" y="400"/>
                            <mxPoint x="120" y="400"/>
                        </Array>
                    </mxGeometry>
                </mxCell>
                <mxCell id="7" value="mayor = a" style="whiteSpace=wrap;html=1;fillColor=#9999FF;strokeColor=#000000;fontColor=#000000;shadow=0;sketch=0;" parent="1" vertex="1">
                    <mxGeometry x="320" y="320" width="80" height="40" as="geometry"/>
                </mxCell>
                <mxCell id="9" value="mayor = b" style="whiteSpace=wrap;html=1;fillColor=#9999FF;strokeColor=#000000;fontColor=#000000;shadow=0;sketch=0;" parent="1" vertex="1">
                    <mxGeometry x="80" y="320" width="80" height="40" as="geometry"/>
                </mxCell>
                <mxCell id="15" value="" style="edgeStyle=orthogonalEdgeStyle;html=1;endArrow=classic;endFill=1;strokeColor=#000000;fontColor=#000000;shadow=0;sketch=0;" parent="1" source="12" target="14" edge="1">
                    <mxGeometry relative="1" as="geometry"/>
                </mxCell>
                <mxCell id="12" value="mayor" style="shape=document;whiteSpace=wrap;html=1;boundedLbl=1;fillColor=#FFFB94;strokeColor=#000000;fontColor=#000000;shadow=0;sketch=0;" parent="1" vertex="1">
                    <mxGeometry x="200" y="440" width="80" height="40" as="geometry"/>
                </mxCell>
                <mxCell id="13" value="" style="endArrow=classic;html=1;entryX=0.5;entryY=0;entryDx=0;entryDy=0;strokeColor=#000000;fontColor=#000000;sketch=0;shadow=0;endFill=1;" parent="1" target="12" edge="1">
                    <mxGeometry width="50" height="50" relative="1" as="geometry">
                        <mxPoint x="240" y="400" as="sourcePoint"/>
                        <mxPoint x="360" y="400" as="targetPoint"/>
                    </mxGeometry>
                </mxCell>
                <mxCell id="14" value="FIN" style="ellipse;whiteSpace=wrap;html=1;fillColor=#FF9999;strokeColor=#000000;fontColor=#000000;shadow=0;sketch=0;" parent="1" vertex="1">
                    <mxGeometry x="200" y="520" width="80" height="40" as="geometry"/>
                </mxCell>
                <mxCell id="31" value="True" style="text;html=1;align=center;verticalAlign=middle;resizable=0;points=[];autosize=1;strokeColor=none;fillColor=none;fontColor=#000000;" parent="1" vertex="1">
                    <mxGeometry x="280" y="260" width="40" height="20" as="geometry"/>
                </mxCell>
                <mxCell id="32" value="False" style="text;html=1;align=center;verticalAlign=middle;resizable=0;points=[];autosize=1;strokeColor=none;fillColor=none;fontColor=#000000;" parent="1" vertex="1">
                    <mxGeometry x="155" y="260" width="50" height="20" as="geometry"/>
                </mxCell>
            </root>
        </mxGraphModel>
    </diagram>
</mxfile>